<?xml version="1.0" encoding="utf-8"?>
<!-- Generator: Adobe Illustrator 19.0.0, SVG Export Plug-In . SVG Version: 6.00 Build 0)  -->
<svg version="1.1" xmlns="http://www.w3.org/2000/svg" xmlns:xlink="http://www.w3.org/1999/xlink" x="0px" y="0px"
	 viewBox="0 0 1080 1080" style="enable-background:new 0 0 1080 1080;" xml:space="preserve">
<style type="text/css">
	.st0{fill:#FFFFFF;}
</style>
<g id="Layer_2">
	<rect x="4" y="4" width="1079" height="1079"/>
</g>
<g id="Layer_1">
	<polygon class="st0" points="596,555 731,648 731,794 538,659.7 538,425.2 551,434 551,485 731,362 733,460 680,498 679,432 
		550,520 552,638 679,724 680,646 575,574 575,537 655,483 654,515 	"/>
	<polygon class="st0" points="480,530 345,437 345,291 538,425.3 538,659.8 525,651 525,600 345,723 343,625 396,587 397,653 
		526,565 524,447 397,361 396,439 501,511 501,548 421,602 422,570 	"/>
</g>
</svg>
